<?xml version="1.0" encoding="utf-8"?>
<!-- Generator: Adobe Illustrator 24.1.2, SVG Export Plug-In . SVG Version: 6.00 Build 0)  -->
<svg version="1.1" id="Layer_1" xmlns="http://www.w3.org/2000/svg" xmlns:xlink="http://www.w3.org/1999/xlink" x="0px" y="0px"
	 viewBox="5.8670806884765625 225.8443603515625 1012.23291015625 572.3556518554688" width="120" height="68" xml:space="preserve">
<style type="text/css">
	.st0{fill:#01579B;}
	.st1{fill:#FFCA55;}
	.st2{fill:#B4CDE0;}
</style>
<g>
	<g>
		<path class="st0" d="M6,722.3c0-28.8,22-49.5,51.6-49.5c15.7,0,29.2,5.6,38.1,16.1l-11.5,10.9c-6.5-7.3-15.9-11.4-25.7-11.3
			c-20,0-34.4,14-34.4,33.9s14.5,33.9,34.4,33.9c9.8,0.2,19.2-4,25.7-11.4l11.6,11c-9,10.5-22.4,16.1-38.3,16.1
			C28,771.9,6,751.1,6,722.3z"/>
		<path class="st0" d="M175.1,770.5L149,733.9l-25.9,36.6h-20.4l35.8-49.2l-33.9-47.2h20.2l24.6,34.3l24.4-34.3h19.4l-33.7,46.5
			l36.2,49.8L175.1,770.5z"/>
		<path class="st0" d="M299.9,770.5l-0.1-63.9l-31.7,52.9h-8l-31.7-52v63h-17.1v-96.3H226l38.3,63.8l37.6-63.8h14.7l0.1,96.4
			L299.9,770.5L299.9,770.5L299.9,770.5z"/>
		<path class="st0" d="M473.3,674.2v96.4h-17.9v-41.3h-49.8v41.3h-17.9v-96.4h17.9V714h49.8v-39.8H473.3z"/>
		<path class="st0" d="M493.8,733.8c0-22,16.5-37.6,39.1-37.6c22.8,0,39.2,15.6,39.2,37.6s-16.4,37.7-39.2,37.7
			C510.3,771.5,493.8,755.8,493.8,733.8z M554.8,733.8c0-14-9.4-23-21.9-23s-21.8,9-21.8,23s9.4,23,21.8,23
			C545.3,756.8,554.8,747.8,554.8,733.8z"/>
		<path class="st0" d="M590.5,668.4h17.2v102.2h-17.2V668.4z"/>
		<path class="st0" d="M704.2,668.4v102.2h-16.5V761c-5.8,7-14.3,10.5-24.4,10.5c-21.3,0-37.2-14.9-37.2-37.7s15.8-37.6,37.2-37.6
			c9.5,0,17.9,3.2,23.7,9.9v-37.7H704.2L704.2,668.4z M687.3,733.8c0-14-9.5-23-21.9-23s-21.9,9-21.9,23s9.5,23,21.9,23
			S687.3,747.8,687.3,733.8L687.3,733.8z"/>
		<path class="st0" d="M725.3,674.6c0-5.8,4.7-10.3,11-10.3c6.3,0,11,4.3,11,9.9c0,6-4.5,10.7-11,10.7S725.3,680.3,725.3,674.6z
			 M727.7,697h17.2v73.5h-17.2V697z"/>
		<path class="st0" d="M840.6,728.4v42.1h-17.2v-39.9c0-13.1-6.5-19.4-17.5-19.4c-12.2,0-20.5,7.4-20.5,22.2v37.2h-17.2V697h16.4
			v9.5c5.7-6.8,14.6-10.3,25.3-10.3C827.5,696.2,840.6,706.2,840.6,728.4z"/>
		<path class="st0" d="M936.7,697v62.4c0,26.7-13.9,38.8-39.7,38.8c-13.8,0-27.4-3.6-35.8-10.5l7.7-12.9c6.5,5.4,16.9,8.8,27.1,8.8
			c16.2,0,23.4-7.4,23.4-22.3v-3.8c-6.1,6.6-14.7,9.8-24.6,9.8c-21.1,0-37.2-14.3-37.2-35.7s16.1-35.4,37.2-35.4
			c10.3,0,19.4,3.3,25.5,10.6V697H936.7z M919.8,731.6c0-12.4-9.4-20.8-22.3-20.8c-13.1,0-22.4,8.4-22.4,20.8s9.4,21.1,22.4,21.1
			S919.8,744.1,919.8,731.6z"/>
		<path class="st0" d="M953.6,763.2l6.6-13.1c6.5,4.3,16.4,7.3,25.6,7.3c10.9,0,15.4-3,15.4-8.1c0-14-45.4-0.8-45.4-30.2
			c0-13.9,12.5-23,32.3-23c9.8,0,20.9,2.3,27.5,6.3l-6.6,13.1c-6.4-3.7-13.6-5.6-21-5.5c-10.5,0-15.4,3.4-15.4,8.3
			c0,14.9,45.4,1.7,45.4,30.4c0,13.8-12.7,22.7-33.3,22.7C972.4,771.5,960.2,767.9,953.6,763.2z"/>
	</g>
	<g>
		<path class="st1" d="M362.6,285.5c-41.2,0-77.6,26.8-90,66.1l64.5,58l90.5-98C410.1,294.8,386.9,285.4,362.6,285.5z"/>
		<path class="st2" d="M522,600.7c-80.7-72.5-161.4-144.2-242-217.5c-31.4-28.5-62.5-27.6-95.7,10c-54.6,62-108.1,125.4-161.9,188.4
			c-10.8,12.7-18.7,26.9-16,45.4l529.7-0.5C534.9,613.6,529.9,607.6,522,600.7z"/>
		<path class="st0" d="M656.1,259.9c-46.2-44.3-105.3-45.5-153.2-2.9c-5.7,5.1-11.2,10.3-16.8,15.5c-11.2,10.6-22.2,21.5-33,32.6
			l-13.8,14.8l-40.8,43.9l-2.5,2.8l-48,53.3l0,0l25.3,22.8l26.6-29.6l16-17.3c22.7-23,45.6-45.4,71.4-62.7
			c49.3-33.5,98.1-19.3,138.5,23.2L526,463.7l-7.4,8.1l0,0l-0.1,0.1l-50.4,55.9l20.2,18.2l13.1,11.8l9.5,8.7l0.2,0.2l0,0l0.5,0.5
			l45.6-50.6l37.3-40.5c50.1-51.9,113.2-52.3,163.6-2.6c51.2,50.5,101.7,102,152.8,153.4h107.2C896.6,502.9,779.4,378,656.1,259.9z"
			/>
	</g>
</g>
</svg>
